<svg width="93" height="78" viewBox="0 0 93 78" fill="none" xmlns="http://www.w3.org/2000/svg">
<path fill-rule="evenodd" clip-rule="evenodd" d="M14.3901 20.6158L47.0001 8.75659L79.6101 20.6158V47.1795C79.6101 62.1472 71.6989 71.6584 63.6097 77.5175C55.6393 83.2906 47.6138 85.4148 47.2288 85.5146L47.0001 85.5694L46.7718 85.5147C46.3919 85.4162 38.3636 83.2925 30.3906 77.5175C22.3014 71.6584 14.3901 62.1472 14.3901 47.1795V20.6158Z" fill="white"/>
<path d="M41.2499 56.9973L62.2173 36.0299L63.6097 37.4223L41.2499 59.7821L30.3901 48.9223L31.7825 47.5299L41.2499 56.9973Z" fill="#F08A83"/>
<path fill-rule="evenodd" clip-rule="evenodd" d="M14.3901 20.6158L47.0001 8.75659L79.6101 20.6158V47.1795C79.6101 62.1472 71.6989 71.6584 63.6097 77.5175C55.6393 83.2906 47.6138 85.4148 47.2288 85.5146L47.0001 85.5694L46.7718 85.5147C46.3919 85.4162 38.3636 83.2925 30.3906 77.5175C22.3014 71.6584 14.3901 62.1472 14.3901 47.1795V20.6158ZM46.4751 83.3853L47.0039 83.5419L47.5339 83.3895C49.9233 82.7025 57.3803 80.2553 64.2747 74.715C71.2167 69.1364 77.6401 60.3654 77.6401 47.1795V21.9931L47.0001 10.8524L16.3601 21.9931V47.1795C16.3601 60.2668 22.8386 69.0376 29.7965 74.6366C36.7111 80.2006 44.1677 82.7022 46.4751 83.3853Z" fill="#F08A83"/>
</svg>
