<svg width="76" height="78" viewBox="0 0 76 78" fill="none" xmlns="http://www.w3.org/2000/svg">
<rect x="0.463867" y="46.9762" width="52.0145" height="35.8975" transform="rotate(-45 0.463867 46.9762)" fill="white"/>
<path d="M19.5799 46.2528L21.6192 44.2136L19.5205 42.1149L20.5699 41.0655L22.6685 43.1642L24.6682 41.1645L22.5696 39.0658L23.9555 37.6799L26.0542 39.7786L33.4392 32.3936L39.1413 38.0957C42.2893 41.2437 42.6457 45.1243 40.0125 47.7576C37.498 50.272 33.3996 49.8959 30.3704 46.8666L26.2522 42.7484L24.2525 44.7481L27.5391 48.0348L26.4898 49.0841L23.2031 45.7975L21.1638 47.8368L19.5799 46.2528ZM38.3889 46.2133C40.1709 44.4313 39.8739 41.7981 37.6564 39.5806L33.5382 35.4624L27.6381 41.3625L31.7563 45.4807C33.9144 47.6388 36.6664 47.9358 38.3889 46.2133Z" fill="#F08A83"/>
<circle cx="47.9253" cy="67.5083" r="14" fill="white"/>
<path d="M61.8984 11.0978L61.8341 35.4286L37.5676 11.1621L61.8984 11.0978Z" fill="white"/>
<path d="M37.2329 9.50094C37.3597 9.50083 37.5088 9.50083 37.6019 9.50128L62.0018 9.49573C62.1945 9.49719 62.5527 9.49718 62.861 9.49682L62.9324 9.4967L62.9323 9.58299C62.9321 9.90015 62.9321 10.2669 62.9328 10.4621L62.9328 10.4631L62.9328 35.3866L62.9329 35.3907C62.9336 35.4832 62.9336 35.6332 62.9334 35.7619L62.9334 35.796L62.9148 35.8156C62.8293 35.9058 62.7281 36.0123 62.661 36.082L62.6595 36.0835L51.2929 47.6951L50.6977 47.0871L50.6958 47.0851L50.6834 47.0724L50.6818 47.0708L50.6613 47.0498L50.6601 47.0487L50.659 47.0476L50.658 47.0465L50.6549 47.0434L50.654 47.0424L50.653 47.0415L50.6521 47.0405L50.6513 47.0396L50.6504 47.0388L50.6496 47.0379L50.6488 47.0371L50.6472 47.0355L50.6465 47.0348L50.6458 47.034L50.6444 47.0327L50.6432 47.0314L50.6409 47.029L50.6399 47.028L50.6389 47.027L50.6372 47.0253L50.6365 47.0245L50.6339 47.0219L50.6324 47.0203L50.6317 47.0196L50.631 47.0189L50.6295 47.0174L50.6287 47.0166L50.628 47.0159L50.6271 47.015L50.6261 47.014L50.6246 47.0124L50.6228 47.0105L50.6206 47.0084L50.6154 47.003L50.6146 47.0022L50.613 47.0006L50.587 46.974L50.5825 46.9694L50.5809 46.9677L50.5776 46.9644L50.5759 46.9626L50.5527 46.9389L50.546 46.9321L50.4979 46.883L49.9548 46.3282L61.0582 34.9855V11.4379H37.9863L2.81062 47.3718L25.8694 70.9276L26.6519 70.1393L27.3153 70.817L27.3166 70.8183L27.3292 70.8311L27.9871 71.5033L26.536 72.9856C26.4061 73.1185 26.1544 73.3678 25.932 73.587L25.8737 73.6444L25.8162 73.5876C25.5947 73.3685 25.3433 73.1187 25.213 72.9854L0.813392 48.0599C0.677622 47.9214 0.420276 47.6629 0.198433 47.4405L0.134766 47.3768L0.203636 47.3056C0.426102 47.076 0.680904 46.8133 0.813584 46.6779L36.9388 9.77966L36.9397 9.77874C37.0072 9.71018 37.112 9.60361 37.1998 9.51422L37.2128 9.50097L37.2329 9.50094Z" fill="#F08A83"/>
<path fill-rule="evenodd" clip-rule="evenodd" d="M52.372 20.2777L52.5605 20.4683C53.6966 21.7355 54.3318 23.396 54.3318 25.125C54.3318 26.9456 53.6275 28.6904 52.3755 29.9798C51.1154 31.2595 49.4127 31.9755 47.6405 31.9745C45.8679 31.9735 44.1657 31.2555 42.9068 29.974C41.6561 28.6874 40.9523 26.9455 40.9523 25.1278C40.9523 23.3101 41.656 21.5683 42.9066 20.2818C44.1666 19.0045 45.8672 18.2893 47.6377 18.2883C49.4087 18.2874 51.1106 19.0011 52.372 20.2777ZM52.0995 23.2509C51.857 22.6555 51.5016 22.1143 51.053 21.6585C50.6057 21.1973 50.0743 20.8385 49.4912 20.5903C48.9049 20.3407 48.2756 20.2123 47.6397 20.2129C47.0039 20.2134 46.3747 20.343 45.7889 20.5936C45.204 20.8439 44.6742 21.2097 44.2298 21.6695C43.7809 22.1239 43.4251 22.6639 43.1823 23.2583C42.9392 23.8535 42.8142 24.4917 42.8142 25.1361C42.8142 25.7804 42.9392 26.4187 43.1823 27.0139C43.4251 27.6084 43.7811 28.1486 44.2301 28.603C44.6754 29.0618 45.2057 29.4266 45.7909 29.6759C46.3768 29.9255 47.0058 30.0542 47.6413 30.0542C48.2768 30.0542 48.9058 29.9255 49.4917 29.6759C50.0771 29.4265 50.6075 29.0616 51.0529 28.6026C51.5015 28.1468 51.857 27.6056 52.0995 27.0102C52.3423 26.4142 52.4671 25.7754 52.4671 25.1305C52.4671 24.4856 52.3423 23.8469 52.0995 23.2509Z" fill="#F08A83"/>
<path d="M40.0125 67.1231L45.3098 72.5402L54.2749 63.3819L54.9269 64.0533L54.9278 64.0541L55.5997 64.7461L45.9705 74.5881L45.9688 74.5899L45.3101 75.2558L45.2621 75.2067C45.044 74.984 44.7908 74.7257 44.6549 74.5881L38.6835 68.488L39.3562 67.7971L39.3571 67.7962L39.3584 67.7948L39.3592 67.7941L40.0125 67.1231Z" fill="#F08A83"/>
<path fill-rule="evenodd" clip-rule="evenodd" d="M36.7993 56.684C39.6707 53.7486 43.562 52.0982 47.6195 52.0908C51.677 52.0982 55.5683 53.7486 58.4398 56.684C61.3116 59.6197 62.9286 63.6012 62.9329 67.756C62.9272 71.9094 61.3095 75.889 58.4376 78.8227C55.5662 81.756 51.6756 83.4046 47.6195 83.4104C43.5634 83.4046 39.6728 81.756 36.8014 78.8227C33.9296 75.889 32.3118 71.9094 32.3061 67.756C32.3105 63.6012 33.9274 59.6197 36.7993 56.684ZM61.0583 67.7562C61.0583 60.1738 55.0682 54.033 47.6195 54.033C40.1709 54.033 34.1808 60.1738 34.1808 67.7562C34.1808 75.3395 40.1827 81.4682 47.625 81.4682C55.0678 81.4682 61.0583 75.339 61.0583 67.7562Z" fill="#F08A83"/>
</svg>
