<svg width="93" height="78" viewBox="0 0 93 78" fill="none" xmlns="http://www.w3.org/2000/svg">
<g clip-path="url(#clip0_847_1091)">
<rect x="49.7725" y="3.49194" width="55.6299" height="66.7173" transform="rotate(45 49.7725 3.49194)" fill="white"/>
<rect x="62.9717" y="9.51257" width="28.9561" height="9.07227" transform="rotate(45 62.9717 9.51257)" fill="white"/>
<ellipse cx="71.549" cy="19.9448" rx="7.19873" ry="5.99219" transform="rotate(45 71.549 19.9448)" fill="white"/>
<path fill-rule="evenodd" clip-rule="evenodd" d="M80.3311 33.9466L88.5686 42.1841C88.7658 42.3811 89.2803 42.8958 89.2803 42.8958C89.2803 42.8958 88.7658 43.4106 88.5686 43.6076L42.3106 89.8656C42.1218 90.0544 41.5988 90.5773 41.5988 90.5773C41.5988 90.5773 41.0759 90.0544 40.8871 89.8656L2.38734 51.3658C2.19857 51.1771 1.67555 50.654 1.67555 50.654C1.67555 50.654 2.19858 50.1311 2.38734 49.9423L48.6455 3.68423C48.8424 3.4871 49.3571 2.9726 49.3571 2.9726C49.3571 2.9726 49.8719 3.48716 50.0688 3.68434L58.3063 11.9218L61.293 8.93514C61.4899 8.73801 62.0046 8.22351 62.0046 8.22351C62.0046 8.22351 62.5194 8.73807 62.7164 8.93525L67.281 13.4998L67.4447 13.437C69.0333 12.8268 70.7647 12.6902 72.4293 13.0439C74.0938 13.3975 75.6202 14.2261 76.8235 15.4294C78.0268 16.6327 78.8554 18.1591 79.2091 19.8237C79.5627 21.4883 79.4262 23.2197 78.816 24.8082L78.7531 24.972L83.3177 29.5365C83.5064 29.7253 84.0294 30.2483 84.0294 30.2483C84.0294 30.2483 83.5064 30.7713 83.3177 30.96L80.3311 33.9466ZM66.3528 15.4186L62.0046 11.0705L57.1766 15.8986L76.3544 35.0764L81.1825 30.2483L76.8337 25.8995C76.6827 25.7493 76.2978 25.3636 76.2978 25.3636C76.2978 25.3636 76.5504 24.9191 76.6471 24.7294C77.2973 23.4525 77.5266 22.0025 77.3023 20.5872C77.0779 19.1719 76.4114 17.8639 75.3981 16.8507C74.3849 15.8374 73.0769 15.1709 71.6616 14.9465C70.2463 14.7222 68.7963 14.9515 67.5193 15.6017C67.3303 15.698 66.9259 15.9917 66.9259 15.9917C66.9259 15.9917 66.5031 15.5681 66.3528 15.4186ZM4.52257 50.6541L41.5988 87.7304L86.4334 42.8958L78.9076 35.3701L77.0661 37.2116C76.8774 37.4004 76.3544 37.9233 76.3544 37.9233C76.3544 37.9233 75.8314 37.4004 75.6426 37.2116L55.0412 16.6102C54.8441 16.4133 54.3296 15.8986 54.3296 15.8986C54.3296 15.8986 54.8442 15.3838 55.0413 15.1868L56.8828 13.3453L49.3571 5.81957L4.52257 50.6541Z" fill="#F08A83"/>
<path fill-rule="evenodd" clip-rule="evenodd" d="M41.9201 28.0695L51.8097 28.4483C51.733 30.4602 51.8097 28.4483 51.7329 30.4603L40.8272 30.041C40.5738 30.0313 39.8082 30.0054 39.8082 30.0054C39.8082 30.0054 39.8453 29.2679 39.8594 28.9867L40.0745 24.6451C42.0853 24.7443 40.0745 24.6451 42.0853 24.7443L41.9201 28.0695ZM31.0168 38.9731L40.9056 39.3524C40.8287 41.3645 40.9056 39.3524 40.8287 41.3645L29.9205 40.9477C29.6671 40.938 28.8978 40.9253 28.8978 40.9253C28.8978 40.9253 28.9392 40.1741 28.9532 39.8928L29.1678 35.5518C31.1786 35.6512 29.1401 35.5241 31.1786 35.6512L31.0168 38.9731ZM20.1097 49.8799L29.9994 50.2586L30.0118 50.2588C29.9361 52.2696 30.0118 50.2588 29.9361 52.2696L19.0189 51.8493C18.7655 51.8395 18.0039 51.8153 18.0039 51.8153C18.0039 51.8153 18.037 51.0762 18.0512 50.7949L18.266 46.4579L18.2661 46.4558C20.2767 46.5556 18.2657 46.4576 20.2764 46.5554L20.2764 46.5575L20.1097 49.8799ZM54.3191 36.5104L68.7667 50.958C68.0408 51.6843 68.4426 51.2821 68.055 51.6697C67.6673 52.0574 68.055 51.6697 67.3432 52.3815L52.8956 37.9339C53.6074 37.2222 53.2197 37.6098 53.6074 37.2222C53.995 36.8345 53.6074 37.2222 54.3191 36.5104ZM43.415 47.4146L57.8626 61.8621C57.101 62.6282 57.5385 62.1862 57.1508 62.5739C56.7632 62.9615 57.2371 62.4877 56.4391 63.2856L41.9915 48.838C42.7032 48.1263 42.3156 48.514 42.7032 48.1263C43.0909 47.7386 42.7684 48.0611 43.415 47.4146ZM32.5108 58.3187L46.9584 72.7663C46.1729 73.562 46.6343 73.0904 46.2467 73.478C45.859 73.8657 46.3024 73.4223 45.5349 74.1897L31.0874 59.7422C31.7991 59.0304 31.4114 59.4181 31.7991 59.0304C32.1868 58.6428 31.7991 59.0304 32.5108 58.3187Z" fill="#F08A83"/>
</g>
<defs>
<clipPath id="clip0_847_1091">
<rect width="94" height="94" fill="white"/>
</clipPath>
</defs>
</svg>
