<svg width="93" height="78" viewBox="0 0 93 78" fill="none" xmlns="http://www.w3.org/2000/svg">
<g clip-path="url(#clip0_847_1858)">
<g clip-path="url(#clip1_847_1858)">
<path d="M100.189 43.2948L82.2525 50.1862L73.0313 22.1143L95.1501 3.43854L100.189 43.2948Z" fill="white"/>
<path d="M40.699 88.2964L46.2433 73.1224L21.5526 59.1782L-3.77266 88.6466L40.699 88.2964Z" fill="white"/>
<path d="M73.7516 25.833L81.4063 45.6846L71.5202 55.2267L65.8461 66.1013L46.8907 73.2795L26.328 61.4188L28.6682 54.4967L24.308 51.4914L24.9485 48.2397L27.0917 46.811L25.7368 44.4461L25.7368 41.7364L27.9538 40.0367L29.5058 38.8296C28.8324 38.1399 27.4907 36.7259 27.5104 36.588C27.5351 36.4155 27.7075 34.297 27.9538 34.297C28.1509 34.297 30.1544 33.1967 31.1316 32.6466L33.1269 31.9076L31.4518 29.863L31.1316 27.375L33.7428 25.9462L39.7702 25.3014C40.3614 24.8375 62.6708 25.4625 73.7516 25.833Z" fill="white"/>
<path d="M74.0113 25.5936C74.0113 25.5936 51.4465 25.1485 39.0535 24.828C28.6775 24.5596 29.7366 31.6547 35.3776 32.2034M35.3776 32.2034C27.1173 31.4 25.9788 38.6973 31.4789 39.1364M35.3776 32.2034L51.093 33.763M31.4789 39.1364C24.6919 38.5946 24.1937 45.6434 28.4201 46.126M31.4789 39.1364L49.45 40.5173M28.4201 46.126C24.1635 45.64 21.6265 52.8768 28.907 54.0212M28.4201 46.126L48.7198 47.8192M28.907 54.0212C28.907 54.0212 53.967 55.8257 57.772 56.054C58.2519 54.064 58.9106 52.3291 61.0894 51.1016C60.7625 48.4537 62.3288 44.3552 64.5793 43.0873C66.4052 42.0587 67.9348 42.8355 69.1393 44.5505C71.4811 47.8849 70.6152 56.2434 70.6152 56.2434L65.7502 66.392L46.7695 72.8521M28.907 54.0212L26.5529 61.6214M46.7695 72.8521L26.5529 61.6214M46.7695 72.8521L38.2131 92.8849L-11.3817 95.9563L21.9558 59.401L26.5529 61.6214M81.1305 45.5574C80.0613 46.4772 73.5496 53.3115 70.4274 56.6138M103.416 43.3203C102.05 44.0896 88.6701 48.453 82.9037 50.1142L72.6266 21.7753L93.5336 4.17662L103.416 43.3203Z" stroke="#F08A83" stroke-width="2"/>
</g>
</g>
<defs>
<clipPath id="clip0_847_1858">
<rect width="94" height="94" fill="white"/>
</clipPath>
<clipPath id="clip1_847_1858">
<rect width="92" height="92" fill="white" transform="translate(1 -6)"/>
</clipPath>
</defs>
</svg>
