<svg width="93" height="78" viewBox="0 0 93 78" fill="none" xmlns="http://www.w3.org/2000/svg">
<rect x="45.127" y="11.9072" width="3.91211" height="67.6021" fill="white"/>
<rect x="33.2119" y="71.9736" width="27.3496" height="9.02686" fill="white"/>
<path d="M84.1387 49.6147C84.1387 51.0073 83.8336 52.3862 83.2408 53.6727C82.6481 54.9593 81.7793 56.1282 80.684 57.1129C79.5888 58.0976 78.2885 58.8787 76.8575 59.4116C75.4264 59.9445 73.8927 60.2188 72.3437 60.2188C70.7948 60.2188 69.2611 59.9445 67.83 59.4116C66.399 58.8787 65.0987 58.0976 64.0035 57.1129C62.9082 56.1282 62.0394 54.9593 61.4467 53.6727C60.8539 52.3862 60.5488 51.0073 60.5488 49.6147L72.3438 49.6147H84.1387Z" fill="white"/>
<path d="M32.2866 49.3398C32.2866 50.7324 31.9815 52.1113 31.3888 53.3978C30.796 54.6844 29.9272 55.8533 28.832 56.838C27.7367 57.8227 26.4364 58.6038 25.0054 59.1367C23.5744 59.6696 22.0406 59.9438 20.4917 59.9438C18.9428 59.9438 17.409 59.6696 15.978 59.1367C14.547 58.6038 13.2467 57.8227 12.1514 56.838C11.0562 55.8533 10.1874 54.6844 9.59461 53.3978C9.00186 52.1113 8.69678 50.7324 8.69678 49.3398L20.4917 49.3398H32.2866Z" fill="white"/>
<path fill-rule="evenodd" clip-rule="evenodd" d="M22.4196 26.9836L30.4015 48.2685H32.6822C32.9096 48.2685 33.5397 48.2685 33.5397 48.2685C33.5397 48.2685 33.5397 48.8986 33.5397 49.126C33.5397 55.9386 27.9962 61.4835 21.1822 61.4835C14.3683 61.4835 8.82471 55.9386 8.82471 49.126C8.82471 48.8986 8.82495 48.2685 8.82495 48.2685C8.82495 48.2685 9.45478 48.2685 9.68221 48.2685H11.963L19.9448 26.9836H11.7211C11.7211 26.9836 11.717 26.6272 11.7205 26.1286C11.724 25.6372 11.7205 25.2686 11.7205 25.2686L29.3185 25.2686L29.3207 25.2685C31.2482 25.2612 33.0952 24.4945 34.4613 23.1345L34.4629 23.133C36.6693 20.9198 39.6385 19.6343 42.7622 19.5399L43.3247 19.5229V14.6261C43.3247 13.99 43.3247 12.3315 43.3247 12.3315C43.3247 12.3315 44.9905 12.3311 45.6197 12.3311H48.4947C49.1275 12.3311 50.7897 12.3311 50.7897 12.3311C50.7897 12.3311 50.7897 13.9936 50.7897 14.6261V19.5229L51.3522 19.5399C54.4759 19.6343 57.4452 20.9198 59.6515 23.133L59.6531 23.1345C61.0192 24.4945 62.8662 25.2612 64.7937 25.2686H82.4147C82.4147 25.2686 82.4147 25.659 82.4147 26.1261C82.4147 26.5931 82.4147 26.1261 82.4147 26.9836H74.1696L82.1515 48.2685H84.4322C84.6596 48.2685 85.2897 48.2685 85.2897 48.2685C85.2897 48.2685 85.2897 48.8986 85.2897 49.126C85.2897 55.9386 79.7462 61.4835 72.9322 61.4835C66.1183 61.4835 60.5747 55.9386 60.5747 49.126C60.5747 48.8986 60.5747 48.2685 60.5747 48.2685C60.5747 48.2685 61.2048 48.2685 61.4322 48.2685H63.713L71.6948 26.9836H64.797C62.4133 26.9747 60.129 26.0269 58.4393 24.3455C56.5633 22.4652 54.0469 21.3617 51.3929 21.2556L50.7897 21.2315V72.1886C50.7897 72.416 50.7897 73.0461 50.7897 73.0461C50.7897 73.0461 50.1596 73.0461 49.9322 73.0461H36.9947C35.9595 73.0461 33.5397 73.0461 33.5397 73.0461C33.5397 73.0461 33.5397 75.6303 33.5397 76.5011V79.9561H60.5747V76.5011C60.5747 75.6759 60.5747 73.0441 60.5747 73.0441C60.5747 73.0441 58.2004 73.0461 57.1197 73.0461C57.1004 73.0461 56.2622 73.0441 56.2622 73.0441C56.2622 73.0441 56.2622 72.634 56.2622 72.1886C56.2622 71.7431 56.2622 71.333 56.2622 71.333C56.2622 71.333 57.1004 71.3311 57.1197 71.3311C58.8253 71.3311 62.2897 71.333 62.2897 71.333C62.2897 71.333 62.2897 75.3558 62.2897 76.5011V79.9561H66.5835C66.5835 80.8108 66.5845 80.314 66.5835 80.8108C66.5825 81.306 66.5835 80.8108 66.5826 81.6711H27.5122C27.5122 80.8136 27.5122 81.2806 27.5122 80.8136C27.5122 80.3465 27.5122 80.7803 27.5122 79.9561H31.8247V76.5011C31.8247 75.1741 31.8247 71.3311 31.8247 71.3311C31.8247 71.3311 35.4708 71.3311 36.9947 71.3311H43.3247V21.2315L42.7215 21.2556C40.0672 21.3617 37.5506 22.4654 35.6745 24.3462C33.9974 26.0217 31.6795 26.9836 29.3185 26.9836H22.4196ZM83.5634 49.9835H62.3024L62.3977 50.6461C63.1381 55.7974 67.5793 59.7685 72.9322 59.7685C78.285 59.7685 82.7277 55.7975 83.4682 50.6461L83.5634 49.9835ZM72.9322 28.5682L65.5446 48.2685H80.3198L72.9322 28.5682ZM49.0747 14.0461H45.0397V71.3311H49.0747V14.0461ZM10.5524 49.9835H22.1257L22.1257 48.2685H13.7946L21.1822 28.5681L28.997 49.41C29.0693 49.5683 29.2165 49.9835 29.2165 49.9835C29.2165 49.9835 29.6347 49.9828 29.8117 49.9835L29.8129 49.9835L31.812 49.9835L31.7167 50.6461C30.9763 55.7973 26.5366 59.7685 21.1822 59.7685C15.8278 59.7685 11.3881 55.7973 10.6477 50.6461L10.5524 49.9835Z" fill="#F08A83"/>
</svg>
